<svg width="32" height="37" viewBox="0 0 32 37" fill="none" xmlns="http://www.w3.org/2000/svg">
<path d="M29.8125 15.6172L5.0625 0.992188C4.40625 0.570312 3.67969 0.429688 2.88281 0.570312C2.08594 0.664062 1.40625 1.01562 0.84375 1.625C0.28125 2.1875 0 2.9375 0 3.875V33.125C0 33.9688 0.257812 34.6953 0.773438 35.3047C1.33594 35.9141 2.01562 36.2891 2.8125 36.4297C3.60938 36.5703 4.35938 36.4297 5.0625 36.0078L29.8125 21.3828C30.5625 20.9609 31.0547 20.375 31.2891 19.625C31.5703 18.875 31.5703 18.125 31.2891 17.375C31.0547 16.625 30.5625 16.0391 29.8125 15.6172Z" fill="white"/>
</svg>
